HIERARCHY
ROOT hip
{
	OFFSET 0.000000 0.000000 0.000000 
	CHANNELS 6 Xposition Yposition Zposition Xrotation Zrotation Yrotation
	JOINT abdomen
	{
		OFFSET 0.000000 3.402643 0.000000 
		CHANNELS 3 Xrotation Zrotation Yrotation
		JOINT chest
		{
			OFFSET 0.000000 8.438565 -0.680529 
			CHANNELS 3 Xrotation Zrotation Yrotation
			JOINT neck
			{
				OFFSET 0.000000 10.207942 -0.272212 
				CHANNELS 3 Xrotation Zrotation Yrotation
				JOINT head
				{
					OFFSET 0.000000 3.130431 0.000000 
					CHANNELS 3 Xrotation Zrotation Yrotation
					End Site
					{
						OFFSET 0.000000 3.130435 0.000000 
					}
				}
			}
			JOINT lCollar
			{
				OFFSET 3.470700 6.669187 -0.816635 
				CHANNELS 3 Yrotation Zrotation Xrotation
				JOINT lShldr
				{
					OFFSET 3.198488 0.000000 0.000000 
					CHANNELS 3 Zrotation Yrotation Xrotation
					JOINT lForeArm
					{
						OFFSET 10.139888 0.000000 0.000000 
						CHANNELS 3 Yrotation Zrotation Xrotation
						JOINT lHand
						{
							OFFSET 8.370511 0.000000 0.000000 
							CHANNELS 3 Zrotation Yrotation Xrotation
							End Site
							{
								OFFSET 4.083176 0.000000 0.000000 
							}
						}
					}
				}
			}
			JOINT rCollar
			{
				OFFSET -3.470700 6.669187 -0.816635 
				CHANNELS 3 Yrotation Zrotation Xrotation
				JOINT rShldr
				{
					OFFSET -3.198488 0.000000 0.000000 
					CHANNELS 3 Zrotation Yrotation Xrotation
					JOINT rForeArm
					{
						OFFSET -10.139888 0.000000 0.000000 
						CHANNELS 3 Yrotation Zrotation Xrotation
						JOINT rHand
						{
							OFFSET -8.370511 0.000000 0.000000 
							CHANNELS 3 Zrotation Yrotation Xrotation
							End Site
							{
								OFFSET -4.083176 0.000000 0.000000 
							}
						}
					}
				}
			}
		}
	}
	JOINT lThigh
	{
		OFFSET 5.308129 -1.633274 1.361059 
		CHANNELS 3 Xrotation Zrotation Yrotation
		JOINT lShin
		{
			OFFSET -2.041588 -20.007561 0.000000 
			CHANNELS 3 Xrotation Zrotation Yrotation
			JOINT lFoot
			{
				OFFSET 0.000000 -19.190928 -1.224953 
				CHANNELS 3 Xrotation Yrotation Zrotation
				End Site
				{
					OFFSET 0.000000 -2.449906 4.627600 
				}
			}
		}
	}
	JOINT rThigh
	{
		OFFSET -5.308129 -1.633274 1.361059 
		CHANNELS 3 Xrotation Zrotation Yrotation
		JOINT rShin
		{
			OFFSET 2.041588 -20.007561 0.000000 
			CHANNELS 3 Xrotation Zrotation Yrotation
			JOINT rFoot
			{
				OFFSET 0.000000 -19.190928 -1.224953 
				CHANNELS 3 Xrotation Yrotation Zrotation
				End Site
				{
					OFFSET 0.000000 -2.449906 4.627600 
				}
			}
		}
	}
}
MOTION
Frames: 10
Frame Time: 0.066667
-0.870123 54.397278 -2.568392 0.000000 0.000000 0.000000 -0.681630 0.095088 -0.352148 -0.465136 0.262665 -1.374451 -3.390000 2.951857 5.939888 2.080600 -0.715500 39.771942 3.699055 -7.035315 1.393175 -70.897049 -12.476176 11.842095 -14.592023 -16.945869 0.833543 10.101772 1.530892 -0.795290 -3.383172 3.998289 -0.024307 70.454750 -9.628896 15.177438 19.321787 10.890676 0.344307 -6.593133 -0.265749 -0.326616 -19.045086 5.479883 -0.225238 36.026363 -3.633764 -2.869496 6.949609 9.029899 -2.219886 -2.704813 -1.277831 0.354068 2.557163 2.455022 -0.537180 -0.082038 -24.443232 0.940870 
-0.870123 54.397278 -2.568392 0.000000 0.000000 0.000000 -1.315875 0.127212 -0.473777 -1.346800 -0.055672 -1.645465 -3.390000 2.235318 5.954480 2.080600 -0.715500 39.769722 3.517863 -6.789736 1.139386 -71.203812 -9.833331 12.204066 -15.340876 -17.062395 0.798799 9.877872 -0.165353 -0.547159 -5.106802 1.826436 0.008287 70.907349 -9.368620 14.167160 15.272214 12.847523 0.609753 -7.357137 -0.773821 -0.960082 -16.225967 4.123793 -0.215017 31.074472 -3.487710 -2.363581 3.013370 21.252304 -1.680261 -4.054066 -1.390042 0.396503 5.870593 2.548228 -0.190643 -1.371677 -29.199150 1.344088 
-0.870123 54.397278 -2.568392 0.000000 0.000000 0.000000 -1.950732 0.161684 -0.590989 -2.231266 -0.378792 -1.904953 -3.390000 1.432096 5.970836 2.080600 -0.715500 39.766438 3.309109 -6.529318 0.873514 -71.517166 -7.062280 12.591305 -16.165379 -17.128830 0.754398 9.621651 -1.889763 -0.290915 -6.859313 -0.362856 0.052285 71.364754 -8.986182 13.126661 11.158356 14.871034 0.868981 -8.150517 -1.321104 -1.605862 -12.969877 2.791909 -0.236244 25.208735 -3.294759 -1.776116 -0.868900 33.153973 -0.859807 -3.497199 -1.482458 0.515168 5.057373 2.464599 -0.173789 -0.962571 -33.747665 1.664171 
-0.870123 54.397278 -2.568392 0.000000 0.000000 0.000000 -2.442068 0.199663 -0.659597 -2.925300 -0.650688 -2.048318 -3.390000 0.580550 5.988177 2.080600 -0.715500 39.762688 3.014051 -6.256595 0.610044 -71.790329 -4.305158 13.012468 -17.168730 -16.935528 0.673125 9.266853 -3.353649 -0.054218 -8.348312 -2.132022 0.141773 71.740067 -8.095945 12.178818 7.680182 16.752844 1.038045 -8.904058 -1.933405 -2.162667 -8.871280 1.472921 -0.324186 17.584393 -3.011375 -1.049752 -4.444997 44.699162 0.352596 -2.552922 -1.570815 0.616501 3.438128 2.373776 -0.231746 -0.208825 -38.261238 1.951310 
-0.870123 54.397278 -2.568393 0.000000 0.000000 0.000000 -2.645752 0.242304 -0.635416 -3.235666 -0.815352 -1.970966 -3.390001 -0.280959 6.005722 2.080600 -0.715500 39.759068 2.573946 -5.974097 0.363460 -71.976532 -1.704100 13.476212 -18.454123 -16.272840 0.527763 8.747227 -4.268326 0.135273 -9.281412 -3.043492 0.310837 71.946381 -6.312275 11.446505 5.537666 18.284592 1.033000 -9.548547 -2.636532 -2.529208 -3.478244 0.165323 -0.606928 7.170293 -2.563362 -0.102901 -7.388894 55.859638 2.197372 -1.777049 -1.675007 0.637254 2.178282 2.314675 -0.266609 0.518946 -42.683002 2.327536 
-0.870123 54.397278 -2.568393 0.000000 0.000000 0.000000 -2.465973 0.287392 -0.491246 -3.031925 -0.835750 -1.604434 -3.390001 -1.114073 6.022688 2.080601 -0.715500 39.756157 1.969052 -5.691183 0.147723 -72.035713 0.632620 13.983569 -20.053673 -15.017252 0.306662 8.031292 -4.428979 0.256581 -9.445108 -2.783592 0.578275 71.924026 -3.388799 11.020529 5.217784 19.297091 0.807987 -10.028955 -3.422324 -2.631675 -3.712649 0.317171 -0.576084 7.105516 -2.546563 -0.039565 -6.198141 49.963322 1.380997 -7.205649 -2.567901 0.384445 13.050005 2.867255 0.653764 -1.265435 -35.439354 1.513001 
-0.870123 54.397278 -2.568393 0.000000 0.000000 0.000000 -2.000200 0.319226 -0.267821 -2.434818 -0.750744 -1.024811 -3.390000 -1.880430 6.038293 2.080600 -0.715500 39.754536 1.335629 -5.444520 -0.025301 -71.954712 2.732157 14.505095 -21.715185 -13.389767 0.060432 7.226675 -3.966287 0.315467 -8.941452 -1.534214 0.901741 71.722298 0.363793 10.863413 6.355542 19.777855 0.469491 -10.346997 -4.146733 -2.506170 -3.709684 0.488082 -0.502622 6.571034 -2.561847 0.089698 -5.034337 43.950886 0.808448 -11.214704 -3.446014 0.245950 20.923971 3.207522 1.379056 0.142944 -27.939117 1.814535 
-0.870123 54.397278 -2.568392 0.000000 0.000000 0.000000 -1.394224 0.318728 -0.022863 -1.627884 -0.618169 -0.344321 -3.390000 -2.541672 6.051757 2.080600 -0.715500 39.754803 0.848940 -5.277605 -0.144269 -71.727119 4.655529 15.003725 -23.115400 -11.697528 -0.144754 6.475781 -3.094801 0.324377 -7.951388 0.398859 1.223600 71.417778 4.495548 10.905616 8.372959 19.753588 0.162083 -10.518580 -4.631742 -2.216278 -3.114565 0.593128 -0.441336 4.845477 -2.522363 0.301791 -3.427461 37.915493 0.380808 -14.392848 -4.322841 0.177139 27.021275 3.445755 1.954567 2.352608 -20.260195 2.080852 
-0.870123 54.397278 -2.568392 0.000000 0.000000 0.000000 -0.793838 0.266825 0.185906 -0.794662 -0.495863 0.324810 -3.390000 -3.059437 6.062301 2.080600 -0.715500 39.757561 0.684248 -5.233933 -0.197836 -71.346535 6.463749 15.442396 -23.931053 -10.247681 -0.242720 5.921019 -2.029074 0.295755 -6.655863 2.709841 1.486218 71.087021 8.556502 11.077595 10.692047 19.250990 0.030334 -10.559608 -4.699334 -1.825581 -1.961484 0.676656 -0.416675 1.937857 -2.422548 0.593268 -1.272307 31.852270 0.010052 -17.084061 -5.202441 0.161176 32.035156 3.615992 2.448188 5.034328 -12.443290 2.288471 
-0.870123 54.397278 -2.568392 0.000000 0.000000 0.000000 -0.344833 0.144441 0.300768 -0.118687 -0.441661 0.870358 -3.390001 -3.395367 6.069143 2.080600 -0.715500 39.763401 1.016814 -5.357000 -0.174661 -70.806541 8.217835 15.784044 -23.838875 -9.347358 -0.167294 5.704790 -0.983657 0.242048 -5.235819 5.092950 1.631963 70.806572 12.096705 11.309806 12.734823 18.296761 0.218816 -10.485980 -4.171493 -1.397661 -1.287175 0.802028 -0.386245 0.030082 -2.359242 0.792644 0.276858 25.848232 -0.290899 -19.422291 -6.076405 0.182527 36.343525 3.727470 2.883262 7.970344 -4.509406 2.453614 
